<svg xmlns="http://www.w3.org/2000/svg" width="220" height="220" viewBox="0 0 220 220">
  <g fill="none" stroke="#00A3A3" stroke-width="1.2" opacity="0.10">
    <path d="M10 30 H70 V70 H110 V30 H190"/>
    <path d="M10 110 H50 V150 H90 V190 H190"/>
    <path d="M130 10 V60 H190"/>
    <path d="M150 90 H210 V140 H170"/>
    <path d="M10 190 H30 V210"/>
    <path d="M130 130 V170 H170 V210"/>
  </g>
  <g fill="#00A3A3" opacity="0.16">
    <circle cx="10" cy="30" r="3"/>
    <circle cx="70" cy="30" r="3"/>
    <circle cx="110" cy="70" r="3"/>
    <circle cx="190" cy="30" r="3"/>
    <circle cx="10" cy="110" r="3"/>
    <circle cx="90" cy="190" r="3"/>
    <circle cx="190" cy="190" r="3"/>
    <circle cx="130" cy="10" r="3"/>
    <circle cx="190" cy="60" r="3"/>
    <circle cx="210" cy="140" r="3"/>
    <circle cx="30" cy="210" r="3"/>
    <circle cx="170" cy="210" r="3"/>
  </g>
</svg>
